<?xml version="1.0" standalone="no"?>
<!DOCTYPE svg PUBLIC "-//W3C//DTD SVG 20010904//EN"
 "http://www.w3.org/TR/2001/REC-SVG-20010904/DTD/svg10.dtd">
<svg version="1.0" xmlns="http://www.w3.org/2000/svg"
 width="362.000000pt" height="217.000000pt" viewBox="0 0 362.000000 217.000000"
 preserveAspectRatio="xMidYMid meet">
<metadata>
Created by potrace 1.14, written by Peter Selinger 2001-2017
</metadata>
<g transform="translate(0.000000,217.000000) scale(0.100000,-0.100000)"
fill="#000000" stroke="none">
<path d="M1625 2084 c-509 -34 -994 -221 -1255 -483 -99 -99 -139 -154 -186
-256 -95 -205 -82 -402 40 -609 52 -89 184 -223 306 -310 356 -255 949 -393
1485 -347 278 24 467 66 694 154 343 132 593 331 706 560 95 193 98 360 11
552 -91 198 -266 362 -527 495 -312 159 -642 237 -1024 244 -104 2 -217 2
-250 0z m452 -39 c260 -29 427 -68 628 -147 323 -128 558 -309 671 -518 63
-116 79 -176 79 -305 0 -122 -24 -205 -90 -318 -113 -191 -356 -378 -634 -486
-242 -94 -476 -145 -756 -163 -295 -18 -537 3 -807 71 -1008 254 -1337 995
-666 1498 105 79 133 97 233 147 374 187 885 271 1342 221z"/>
<path d="M1120 1910 c-282 -76 -531 -212 -700 -381 -88 -89 -132 -159 -172
-272 -103 -290 42 -574 417 -815 80 -52 190 -105 205 -100 6 2 -2 21 -17 42
-43 64 -76 171 -68 223 13 87 75 129 179 121 110 -9 231 -93 301 -209 20 -32
38 -59 39 -59 2 0 18 29 35 64 57 116 123 147 216 101 108 -52 179 -173 251
-424 7 -22 13 -9 35 70 42 153 137 300 227 353 30 17 83 24 117 15 41 -12 99
-76 118 -132 17 -53 29 -56 50 -11 41 85 156 187 249 220 53 19 129 18 170 -2
55 -26 73 -60 73 -135 0 -55 -6 -77 -38 -143 -22 -43 -36 -80 -33 -83 7 -7
159 77 245 135 115 78 196 157 259 251 141 210 153 408 39 626 -37 71 -221
261 -309 318 -80 52 -236 129 -348 170 -109 40 -258 83 -265 75 -3 -3 18 -43
45 -89 68 -113 91 -191 92 -306 0 -78 -3 -99 -26 -149 -32 -70 -48 -88 -105
-126 -104 -66 -221 -17 -281 119 -23 52 -31 103 -56 363 -9 96 -20 179 -24
183 -4 5 -29 -19 -55 -52 l-48 -61 -121 0 -121 0 -45 60 c-25 33 -48 60 -52
60 -11 0 -15 -27 -33 -225 -25 -273 -47 -356 -110 -419 -88 -88 -222 -69 -299
42 -42 61 -55 108 -56 203 0 121 38 235 121 356 16 23 29 44 29 47 0 10 -20 6
-130 -24z m60 -24 c0 -2 -18 -39 -40 -82 -99 -197 -99 -367 2 -499 70 -91 182
-129 264 -87 55 28 89 62 117 118 37 74 45 112 67 324 12 107 23 196 25 198 2
2 20 -15 40 -37 l37 -41 125 0 125 0 38 42 38 41 6 -44 c4 -24 15 -121 26
-216 22 -191 42 -258 95 -320 143 -168 375 -61 418 193 15 88 -9 202 -67 319
-24 49 -43 91 -41 93 2 2 59 -15 126 -38 400 -133 665 -343 755 -597 29 -83
33 -225 9 -318 -44 -170 -216 -360 -438 -484 -32 -18 -60 -31 -63 -28 -3 2 3
24 13 48 23 57 23 163 0 205 -22 43 -105 84 -169 84 -115 0 -252 -89 -339
-220 l-15 -23 -28 47 c-117 200 -332 112 -457 -187 -17 -42 -34 -75 -37 -73
-2 3 -19 40 -36 83 -63 152 -148 251 -239 278 -46 14 -56 14 -98 0 -52 -17
-76 -40 -112 -103 l-24 -43 -43 56 c-57 74 -98 109 -173 147 -83 42 -175 50
-234 19 -102 -52 -128 -160 -68 -289 17 -37 20 -52 11 -52 -28 0 -265 168
-332 236 -131 132 -170 194 -203 316 -20 72 -10 249 18 320 91 234 383 461
741 576 52 17 102 33 110 36 19 6 50 7 50 2z"/>
</g>
</svg>
