<?xml version="1.0" standalone="no"?>
<!DOCTYPE svg PUBLIC "-//W3C//DTD SVG 20010904//EN"
 "http://www.w3.org/TR/2001/REC-SVG-20010904/DTD/svg10.dtd">
<svg version="1.0" xmlns="http://www.w3.org/2000/svg"
 width="533.000000pt" height="573.000000pt" viewBox="0 0 533.000000 573.000000"
 preserveAspectRatio="xMidYMid meet">
<metadata>
Created by potrace 1.15, written by Peter Selinger 2001-2017
</metadata>
<g transform="translate(0.000000,573.000000) scale(0.100000,-0.100000)"
fill="#000000" stroke="none">
<path d="M2923 5706 c-15 -13 -53 -56 -83 -95 l-55 -71 -145 0 c-212 0 -467
-17 -607 -40 -68 -11 -138 -20 -157 -20 -18 0 -75 20 -127 44 -222 103 -494
179 -644 179 -74 1 -99 -4 -139 -23 -62 -30 -116 -98 -172 -216 -66 -137 -88
-240 -88 -409 0 -129 3 -151 37 -279 l36 -138 -55 -111 c-103 -205 -157 -402
-170 -627 l-7 -109 -46 -6 c-25 -3 -75 -10 -111 -15 -36 -5 -92 -12 -125 -15
-112 -12 -167 -51 -150 -106 7 -21 10 -22 124 -15 64 4 153 11 199 14 89 8
116 3 125 -23 4 -8 21 -77 38 -152 26 -113 29 -138 17 -148 -7 -7 -47 -23 -88
-35 -96 -28 -166 -64 -181 -92 -10 -18 -8 -24 11 -40 30 -24 61 -23 160 7 130
39 175 33 206 -28 10 -18 39 -65 66 -105 26 -41 48 -84 48 -96 0 -18 -24 -37
-128 -99 -119 -70 -212 -149 -212 -177 0 -6 5 -20 10 -31 20 -37 63 -23 202
63 120 73 225 128 247 128 4 0 57 -36 117 -81 130 -96 138 -116 57 -134 -66
-15 -124 -53 -163 -107 -32 -43 -60 -123 -60 -168 0 -56 30 -129 74 -176 l43
-48 -51 -50 c-149 -148 -177 -365 -74 -573 52 -106 207 -240 330 -285 36 -13
57 -26 54 -33 -2 -7 -12 -61 -21 -121 -13 -80 -16 -146 -13 -254 6 -176 32
-267 107 -381 124 -191 307 -284 621 -320 131 -15 402 -6 560 17 146 22 170
22 310 -1 144 -25 521 -28 640 -6 342 62 525 221 605 524 36 136 39 282 9 473
l-6 40 63 12 c34 6 95 27 135 46 180 85 296 294 263 476 -8 48 -8 75 0 105 15
55 14 169 -3 209 -36 87 -127 146 -257 168 -68 11 -82 18 -168 81 -125 92
-220 153 -287 184 l-55 25 123 50 c193 77 316 157 470 305 70 68 103 93 122
93 14 0 83 -25 153 -56 210 -93 263 -99 263 -33 0 44 -33 69 -196 149 -80 38
-147 77 -150 85 -6 15 90 250 111 273 10 11 41 12 169 4 166 -11 209 -6 214
22 9 44 -58 72 -237 101 -52 8 -100 20 -107 27 -8 10 -8 44 2 143 19 182 15
172 75 180 28 4 113 4 189 0 76 -4 151 -4 168 0 57 12 51 72 -10 96 -20 7
-104 15 -210 18 -139 5 -180 9 -191 21 -8 8 -22 67 -31 130 -10 63 -33 161
-52 218 l-35 102 50 83 c85 140 129 311 118 459 -4 47 -14 93 -26 117 -26 50
-92 106 -144 123 l-41 13 -12 106 c-20 177 -60 308 -126 409 l-33 50 -276 0
-277 0 -64 -29 c-34 -15 -93 -46 -129 -68 l-66 -41 -62 69 -62 69 -264 0 -263
0 -29 -24z m877 -559 c0 -5 7 -7 15 -3 8 3 15 1 15 -5 0 -6 7 -8 16 -5 9 3 25
-5 41 -22 15 -15 23 -21 19 -14 -12 21 -1 13 35 -25 18 -20 27 -33 19 -29 -8
4 -5 -1 8 -11 12 -10 25 -32 28 -48 3 -16 9 -34 13 -40 12 -14 10 -157 -1
-172 -5 -7 -7 -17 -3 -23 3 -5 1 -10 -5 -10 -6 0 -8 -4 -5 -10 3 -5 1 -10 -6
-10 -7 0 -9 -3 -6 -7 4 -3 -1 -12 -11 -20 -9 -8 -10 -11 -3 -7 9 4 6 -6 -8
-24 -12 -18 -25 -32 -28 -32 -3 0 0 8 7 18 7 9 -2 1 -20 -18 -18 -19 -29 -28
-25 -20 4 8 -2 4 -13 -9 -11 -13 -24 -21 -31 -17 -6 4 -11 2 -11 -4 0 -6 -4
-8 -10 -5 -5 3 -10 1 -10 -5 0 -7 -7 -10 -15 -6 -8 3 -15 2 -15 -3 0 -4 -33
-6 -72 -5 -40 1 -73 3 -73 4 0 1 -11 3 -24 4 -14 2 -27 8 -29 15 -2 6 -8 9
-13 5 -5 -3 -9 0 -9 6 0 6 -5 8 -10 5 -12 -7 -108 83 -112 105 -2 8 -9 21 -16
29 -7 7 -11 20 -8 27 3 8 2 14 -2 14 -4 0 -7 38 -7 85 0 47 3 85 7 85 4 0 5 7
2 15 -4 8 -1 15 6 15 6 0 8 5 5 10 -3 6 -1 10 5 10 6 0 8 5 5 10 -3 6 -1 10 5
10 6 0 9 4 6 9 -3 4 10 26 30 47 19 22 32 32 29 24 -4 -8 3 -4 14 9 12 13 21
19 21 15 0 -5 5 -1 11 9 6 9 14 15 19 12 5 -3 11 -1 15 5 4 6 10 8 15 5 5 -3
11 -2 14 3 7 11 176 11 176 -1z m-2113 -1450 c44 -30 55 -59 60 -152 4 -69 1
-86 -19 -124 -43 -83 -111 -109 -192 -73 -37 17 -51 30 -66 64 -36 78 -20 218
30 271 24 26 90 47 125 41 17 -3 44 -16 62 -27z m2078 1 c59 -47 80 -145 50
-244 -35 -120 -160 -157 -244 -73 -73 72 -68 224 9 301 35 36 42 38 97 38 47
0 67 -5 88 -22z m-1041 -419 c57 -16 88 -51 84 -96 -4 -47 -38 -72 -109 -80
-105 -10 -198 37 -184 95 18 74 109 109 209 81z m-1100 -674 c20 -19 38 -35
41 -35 3 0 6 12 6 28 l2 27 4 -28 c3 -20 8 -26 17 -20 6 4 4 1 -6 -9 -19 -17
-22 -35 -12 -62 8 -20 38 -21 54 -2 18 22 76 38 110 31 17 -4 44 -21 60 -38
45 -48 40 -106 -13 -164 -11 -12 -17 -29 -14 -37 5 -12 0 -16 -18 -16 -34 0
-32 -22 4 -52 16 -14 34 -41 42 -61 12 -33 11 -41 -9 -82 -22 -45 -78 -85
-120 -85 -21 0 -93 45 -105 66 -21 37 -62 -8 -53 -59 3 -18 3 -26 0 -19 -8 17
-25 15 -54 -8 -38 -29 -107 -26 -144 6 -24 21 -30 36 -34 80 -3 39 0 61 12 79
24 37 20 45 -25 45 -76 0 -139 59 -139 131 0 23 10 41 39 70 36 37 42 39 99
39 l61 0 -6 53 c-7 64 13 109 60 137 51 32 100 26 141 -15z m1056 -289 c184 0
357 3 384 8 l49 8 -7 -44 c-19 -122 -85 -238 -168 -292 -78 -51 -152 -69 -262
-64 -198 10 -323 107 -383 295 -32 102 -31 106 15 96 20 -4 188 -7 372 -7z
m-982 -505 c21 -11 54 -22 73 -26 27 -5 39 -15 58 -48 37 -65 137 -213 212
-314 38 -50 69 -96 69 -101 0 -19 -31 -42 -57 -42 -31 0 -70 40 -169 172 -91
122 -246 378 -229 378 3 0 23 -9 43 -19z m2000 -1099 c6 -37 -27 -142 -58
-187 -76 -110 -205 -157 -469 -171 l-131 -7 0 167 0 166 74 0 c101 0 295 17
441 39 66 10 125 17 130 16 6 -1 11 -11 13 -23z m-1733 -7 c94 -8 206 -15 250
-15 135 0 125 14 125 -177 l0 -165 -112 7 c-231 14 -395 65 -455 141 -48 62
-65 103 -71 173 l-5 64 49 -6 c27 -4 126 -14 219 -22z"/>
</g>
</svg>
